<?xml version="1.0" encoding="utf-8"?>
<svg viewBox="0 0 25.6 25.6" fill="black" xmlns="http://www.w3.org/2000/svg">
  <defs/>
  <g fill="none" stroke="#fff">
    <path d="M18.983 18.636c.163-1.357.114-1.555 1.124-1.336l.257.023c.777.035 1.793-.125 2.4-.402 1.285-.596 2.047-1.592.78-1.33-2.89.596-3.1-.383-3.1-.383 3.053-4.53 4.33-10.28 3.227-11.687-3.004-3.84-8.205-2.024-8.292-1.976l-.028.005c-.57-.12-1.2-.19-1.93-.2-1.308-.02-2.3.343-3.054.914 0 0-9.277-3.822-8.846 4.807.092 1.836 2.63 13.9 5.66 10.25C8.29 15.987 9.36 14.86 9.36 14.86c.53.353 1.167.533 1.834.468l.052-.044a2.01 2.01 0 0 0 .021.518c-.78.872-.55 1.025-2.11 1.346-1.578.325-.65.904-.046 1.056.734.184 2.432.444 3.58-1.162l-.046.183c.306.245.285 1.76.33 2.842s.116 2.093.337 2.688.48 2.13 2.53 1.7c1.713-.367 3.023-.896 3.143-5.81" stroke-linecap="butt" stroke-width="2.149" class="D" style="paint-order: fill; fill: rgb(75, 75, 75); stroke: rgb(63, 63, 70);"/>
    <path d="M23.535 15.6c-2.89.596-3.1-.383-3.1-.383 3.053-4.53 4.33-10.28 3.228-11.687-3.004-3.84-8.205-2.023-8.292-1.976l-.028.005a10.31 10.31 0 0 0-1.929-.201c-1.308-.02-2.3.343-3.054.914 0 0-9.278-3.822-8.846 4.807.092 1.836 2.63 13.9 5.66 10.25C8.29 15.987 9.36 14.86 9.36 14.86c.53.353 1.167.533 1.834.468l.052-.044a2.02 2.02 0 0 0 .021.518c-.78.872-.55 1.025-2.11 1.346-1.578.325-.65.904-.046 1.056.734.184 2.432.444 3.58-1.162l-.046.183c.306.245.52 1.593.484 2.815s-.06 2.06.18 2.716.48 2.13 2.53 1.7c1.713-.367 2.6-1.32 2.725-2.906.088-1.128.286-.962.3-1.97l.16-.478c.183-1.53.03-2.023 1.085-1.793l.257.023c.777.035 1.794-.125 2.39-.402 1.285-.596 2.047-1.592.78-1.33z" stroke="none" style="paint-order: fill; fill: rgb(63, 63, 70);"/>
    <path d="M 12.814 16.467 C 12.734 19.313 12.834 22.179 13.112 22.867 C 13.39 23.555 13.987 24.917 16.038 24.479 C 17.751 24.112 18.375 23.401 18.645 21.832 L 19.278 16.815 M 10.356 2.2 C 10.356 2.2 1.072 -1.596 1.504 7.033 C 1.596 8.869 4.134 20.933 7.164 17.283 C 8.27 15.95 9.27 14.907 9.27 14.907 M 15.37 1.507 C 15.05 1.607 20.534 -0.498 23.652 3.485 C 24.752 4.892 23.477 10.642 20.424 15.172" class="C" style="paint-order: fill; fill: rgb(63, 63, 70); stroke: rgb(23, 23, 23);"/>
    <path d="M 20.425 15.17 C 20.425 15.17 20.625 16.15 23.525 15.552 C 24.792 15.29 24.029 16.286 22.745 16.882 C 21.691 17.372 19.327 17.497 19.288 16.822 C 19.188 15.077 20.532 15.607 20.435 15.17 C 20.347 14.776 19.745 14.39 19.349 13.426 C 19.002 12.586 14.589 6.136 20.573 7.093 C 20.793 7.048 19.013 1.393 13.413 1.311 C 7.813 1.229 7.99 8.196 7.99 8.196" stroke-linejoin="bevel" style="paint-order: fill; fill: rgb(63, 63, 70); stroke: rgb(23, 23, 23);"/>
    <path d="M 11.247 15.768 C 10.467 16.64 10.697 16.793 9.137 17.114 C 7.559 17.439 8.487 18.018 9.091 18.17 C 9.825 18.354 11.523 18.614 12.671 17.007 C 13.021 16.517 12.669 15.737 12.189 15.539 C 11.957 15.443 11.647 15.323 11.249 15.769 L 11.247 15.768 Z" style="paint-order: fill; fill: rgb(63, 63, 70); stroke: rgb(23, 23, 23);"/>
    <path d="M 11.196 15.753 C 11.116 15.24 11.364 14.631 11.629 13.917 C 12.027 12.847 12.945 11.777 12.211 8.38 C 11.664 5.85 7.991 7.853 7.991 8.196 C 7.991 8.539 8.157 9.936 7.931 11.561 C 7.634 13.683 9.281 15.477 11.177 15.294" class="B" style="paint-order: fill; fill: rgb(63, 63, 70); stroke: rgb(23, 23, 23);"/>
    <g fill="#fff" class="D">
      <path d="M10.322 8.145c-.017.117.215.43.516.472s.558-.202.575-.32-.215-.246-.516-.288-.56.02-.575.136z" stroke-width=".239" style="paint-order: fill; fill: rgb(63, 63, 70); stroke: rgb(23, 23, 23);"/>
      <path d="M19.486 7.906c.016.117-.215.43-.516.472s-.56-.202-.575-.32.215-.246.516-.288.56.02.575.136z" stroke-width=".119" style="paint-order: fill; fill: rgb(63, 63, 70); stroke: rgb(23, 23, 23);"/>
    </g>
    <path d="M20.562 7.095c.05.92-.198 1.545-.23 2.524-.046 1.422.678 3.05-.413 4.68" class="B C E" style="paint-order: fill; fill: rgb(75, 75, 75); stroke: rgb(23, 23, 23);"/>
  </g>
</svg>